<svg width="18" height="18" viewBox="0 0 18 18" xmlns="http://www.w3.org/2000/svg">
  <rect x="0" y="0" width="18" height="18" fill="none"/>
  <path d="M6.8 4.0C6.0 3.2 4.8 3.2 4.0 4.0C3.2 4.8 3.2 6.0 4.0 6.8L6.0 8.8L7.4 7.4L5.4 5.4C5.2 5.2 5.2 4.8 5.4 4.6C5.6 4.4 6.0 4.4 6.2 4.6L8.2 6.6L9.6 5.2L7.6 3.2L6.8 4.0Z" fill="black"/>
  <path d="M9.6 5.2L11.4 7.0C12.0 7.6 12.0 8.6 11.4 9.2L9.5 11.1C8.3 12.3 6.4 12.3 5.2 11.1L4.0 9.9L2.6 11.3L3.8 12.5C5.8 14.5 9.0 14.5 11.0 12.5L12.9 10.6C14.3 9.2 14.3 7.0 12.9 5.6L11.0 3.7L9.6 5.2Z" fill="black"/>
  <circle cx="13.9" cy="4.1" r="1.5" fill="black"/>
</svg>
